<?xml version="1.0" encoding="UTF-8"?>
<svg 
    version="1.1" 
    id="purple-wave" 
    xmlns="http://www.w3.org/2000/svg" 
    viewBox="0 0 1440 320" 
    preserveAspectRatio="none">
  <path 
    fill="#9b59b6" 
    fill-opacity="1" 
    d="M0,64L30,85.3C60,107,120,149,180,149.3C240,149,300,107,360,90.7C420,75,480,85,540,96C600,107,660,117,720,138.7C780,160,840,192,900,186.7C960,181,1020,139,1080,117.3C1140,96,1200,96,1260,101.3C1320,107,1380,117,1410,122.7L1440,128L1440,320L1410,320C1380,320,1320,320,1260,320C1200,320,1140,320,1080,320C1020,320,960,320,900,320C840,320,780,320,720,320C660,320,600,320,540,320C480,320,420,320,360,320C300,320,240,320,180,320C120,320,60,320,30,320L0,320Z">
  </path>
</svg>
